<?xml version="1.0" encoding="UTF-8"?>
<svg width="500" height="500" version="1.1" viewBox="0 0 500.00001 500.00001" xmlns="http://www.w3.org/2000/svg">
 <g transform="matrix(7.0274 0 0 7.0274 74.315 -6969.7)">
  <circle cx="25" cy="1027.4" r="23.151" fill="none" stroke="#555" stroke-width="2.0801"/>
  <path d="m16.943 1017.7c-0.68795-0.011-1.1818 0.6589-0.9668 1.3125l6.334 19.299c0.26765 0.8104 1.362 0.9347 1.8047 0.2051l2.8965-4.7793 4.168 4.1679c0.39053 0.3904 1.0235 0.3904 1.4141 0l3.543-3.541c0.39033-0.3905 0.39033-1.0235 0-1.414l-4.168-4.168 4.7734-2.8926c0.72966-0.4427 0.6053-1.537-0.20508-1.8047l-19.299-6.334c-0.09519-0.032-0.19461-0.049-0.29492-0.051z" color="#000000" color-rendering="auto" fill="#555" image-rendering="auto" shape-rendering="auto" solid-color="#000000" style="block-progression:tb;isolation:auto;mix-blend-mode:normal;text-decoration-color:#000000;text-decoration-line:none;text-decoration-style:solid;text-indent:0;text-transform:none;white-space:normal"/>
  <path d="m18.088 1011.2a0.70378 0.70378 0 0 0 -0.69336 0.7129v2.8398a0.7041 0.7041 0 0 0 1.4082 0v-2.8398a0.70378 0.70378 0 0 0 -0.71484 -0.7129z" color="#000000" color-rendering="auto" fill="#555" fill-rule="evenodd" image-rendering="auto" shape-rendering="auto" solid-color="#000000" style="block-progression:tb;isolation:auto;mix-blend-mode:normal;text-decoration-color:#000000;text-decoration-line:none;text-decoration-style:solid;text-indent:0;text-transform:none;white-space:normal"/>
  <path d="m23.736 1013.6a0.70378 0.70378 0 0 0 -0.48438 0.2129l-2.3418 2.3418a0.70378 0.70378 0 1 0 0.99609 0.9942l2.3418-2.3418a0.70378 0.70378 0 0 0 -0.51172 -1.2071z" color="#000000" color-rendering="auto" fill="#555" fill-rule="evenodd" image-rendering="auto" shape-rendering="auto" solid-color="#000000" style="block-progression:tb;isolation:auto;mix-blend-mode:normal;text-decoration-color:#000000;text-decoration-line:none;text-decoration-style:solid;text-indent:0;text-transform:none;white-space:normal"/>
  <path d="m10.105 1019.2a0.70378 0.70378 0 1 0 0 1.4063h3.6523a0.70378 0.70378 0 1 0 0 -1.4063h-3.6523z" color="#000000" color-rendering="auto" fill="#555" fill-rule="evenodd" image-rendering="auto" shape-rendering="auto" solid-color="#000000" style="block-progression:tb;isolation:auto;mix-blend-mode:normal;text-decoration-color:#000000;text-decoration-line:none;text-decoration-style:solid;text-indent:0;text-transform:none;white-space:normal"/>
  <path d="m12.439 1013.6a0.70378 0.70378 0 0 0 -0.49023 1.2071l2.0215 2.0214a0.70378 0.70378 0 1 0 0.99609 -0.9941l-2.0215-2.0215a0.70378 0.70378 0 0 0 -0.50586 -0.2129z" color="#000000" color-rendering="auto" fill="#555" fill-rule="evenodd" image-rendering="auto" shape-rendering="auto" solid-color="#000000" style="block-progression:tb;isolation:auto;mix-blend-mode:normal;text-decoration-color:#000000;text-decoration-line:none;text-decoration-style:solid;text-indent:0;text-transform:none;white-space:normal"/>
  <path d="m14.848 1022.5a0.70378 0.70378 0 0 0 -0.48438 0.2129l-2.3496 2.3496a0.70378 0.70378 0 1 0 0.99414 0.9961l2.3516-2.3516a0.70378 0.70378 0 0 0 -0.51172 -1.207z" color="#000000" color-rendering="auto" fill="#555" fill-rule="evenodd" image-rendering="auto" shape-rendering="auto" solid-color="#000000" style="block-progression:tb;isolation:auto;mix-blend-mode:normal;text-decoration-color:#000000;text-decoration-line:none;text-decoration-style:solid;text-indent:0;text-transform:none;white-space:normal"/>
 </g>
</svg>
